<mxfile host="app.diagrams.net" modified="2022-01-02T15:55:54.187Z" agent="5.0 (Windows NT 10.0; Win64; x64) AppleWebKit/537.36 (KHTML, like Gecko) Chrome/96.0.4664.110 Safari/537.36" etag="Cpk4o1aW4Bai6jxWHBfW" version="16.1.2" type="github">
  <diagram id="7y3qK5UJEDyLth1DMd9x" name="Page-1">
    <mxGraphModel dx="711" dy="381" grid="1" gridSize="10" guides="1" tooltips="1" connect="1" arrows="1" fold="1" page="1" pageScale="1" pageWidth="827" pageHeight="1169" math="0" shadow="0">
      <root>
        <mxCell id="0" />
        <mxCell id="1" parent="0" />
        <mxCell id="xqXmZL-dFiemZVTsupqS-3" value="" style="group" vertex="1" connectable="0" parent="1">
          <mxGeometry x="320" y="160" width="80" height="42.67" as="geometry" />
        </mxCell>
        <mxCell id="xqXmZL-dFiemZVTsupqS-1" value="" style="shape=image;verticalLabelPosition=bottom;verticalAlign=top;imageAspect=0;aspect=fixed;image=data:image/png,iVBORw0KGgoAAAANSUhEUgAAAHgAAABACAYAAADRTbMSAAAcvklEQVR42u1cBXCbaZJdzyzzHhMVHMNS0RUcM9MSZTITJ+bETCTbkiyw2GK0mMlMiR1mcpiZGSZg2ep7f89udg6TyU12kit9VX8Jo8j/+7v79Xv96UOF9XIuIiqKxWKvx2Jfe124///szyuA+1+f+9D/BHKRcBEId8YSYn/E3eAX7gsXB26e/8IogCB6bWZG9OEZkejDIpHotffrc3/wWcMx5c9MppSRkL0xYtNU/+y7X3v3+gG42YhEtzoro6y/iYYjIt2T1wrr+UB4ynPPHbnC50z46j41mVZs2zShocFAMwXt9dt8fXWfEl7776I74u4sGYlKKWCrm88GmuevHPHTyd3ukgJSz7FiX3snKqZG9V/OhqWtYXtL62io58vCc1/j155rcQoWMoJwfzShSG6a1FLK1/Y45qx5PBRqpaSvI8kXEjKG8N53f5+Ao/XMYLhnfjQmmt+5um/+8pGB+ctHg2fe2/cpLK5rDECsZ8XMkPrRdKaP4u5Gig+0PvKZq1c8ec/zZQUGN+nrUU9llAC0PYeIJL95JTn1ZbnZQRnt3WhWC+/hC+GHq8iqrU5MZxQ0nZbQ3nU6enwpTmf2uxOFGvwcAIScDf8wGpcubp3up8mUbN5rrJh36sooaKtbDDmb/+HJe58jK8QGRJVjCTlFPW25iKuV3P1V5DVWUtRZR9um1Llrx0K0ZVJX+a76ypEvb/ra51yGarXPUr1rONy268BGnfrmDtvniAoAP8t6cjLTwZ6vrskqbq/OqvJpf+ti3NNASW8Lhe1Vi1FnbT7mab0dG+j46g//zbNnBZep5Q9TgR5kA9HCgKk2H3E2UtrXCtLUQtun+1BTHfmLBzwLV09EaM2g9A8ZXP63L+FSSmuLNs+4PzKRUn064pV9ejSh/Eg21P1SXm30ffIUs7T+/HhKfnLztJFWZ6QLo/FeCjpbKDHQgAirJp+5aiE50ASAOk4K733yb5/x4nGbG4azYTFF3O25oL2BUv52/D9iWj/SSwc39dPe9Vq6eMCVo3tjdGynY+ilBNhtbi+azBp+fs2wXjE9pD8yFJHe8lkbb3nNdUeS3jbFaFz28+KO0qKXiS0LaW7C1/epoahs4+yIntL+zoXRaCeNxboo4qyn5EAjRewrcb8GR91CytdOYwnpxkt7fJ9iVvyM7HrA3Lwn6e/K41gEYaKRSCdNJruQkhW0c42KdqxW0bHtlsXHN0fzx3c69rx0keB3iouGo73/PDOiv7FmSJuPuDtowFSD9FZNMXcLDYZE+dG45EY60P0vazLiDxxkAMtKkgDSUEwRnQbxyYYlOQBAKaTOTKCTvJY6gNpAMVcteU1V5DGuRMpuzm0a19D+zdboh/AZRO98xtNStFW7Ko4aTCFn6+NsqBO9bBdIk5i2Tsrp4OZ+OrffTaf3Oh7fOhOhs4cjcf6O9JJE8NSwtWj1kPYvR2PiB2PxHppIyWl2WE3TWTW5QFAsqhIS0pJNUw7GWPXAb6n9y3O7lB8kyAyucCfuEyuFdAzSk4t7WsBu22gwLAaYVeTSl5HfWk029XKya0tpwFhBnv6ViG5x7tAWK+3faFM+AeK/Z7RPWquepq9/ESA/CDrbkJ47chF3S24mK11ABC/sWqPOHdthyV09MkDn9zkenDvi++KTi+NlWBvGNL8T83bdFFLb7IiGZoa1NJ5UICJ6ydK3jJzaEpysKgCME2ZZBUbacDMbFP3OB/R1n9S2gLW1dDDUQ9mgeCEd7M0HHc2U8HZQ3NtN+t63yK4pZYYLYPF3rEDUddC6ETnSqjp/eq9r4f75FIFtlz4t2kSiD3EaV3Qs+WOPqf5IzNNGAsnKBtpoFKVgdlBKJ3dZ6Mxu65FLhwb++AdK2ksBbsjV/rPZQOtJV38dTWZUtHlCRdvWWGjThIHG412U8TWijjVwFLgNZYiMao7miKvlpM/W8rMfFKlK+CR/jwswNxTpXUQ5yfusDRR2tVA60EUBax1Z1aUgWC3kQ5+KVomBnkqJELX9tHZISpePBPMHt5gXj+105XyO1r/nzyZ67WnqWPnXfuvTdm3JErt6xYBds2LWb66YHY91DEwlRUuMoq99+qUCdzgm+wwUmC3jiV7aONFPUxkVbnU0EkYa8tbjpKyikL2WQrZqNPSVTFZs6hUUxGNX/yqkqs4tOLmf+VGDq5ZVfhGp+U7C10U4FhNeod42UMjRQGD75DXX4FYEItTFUiIuYAge9SBCajq02YRoc9CZOTfNrdcv3jgRpt1rjXfSHtGXngbO0wjZSwXuRFLxUTTtsYmEJL92VIfeTY62ohPEaiUDm/DUUdjRgDqs4pMTB1FJuKsRzQLwtSAr7ahvDSBj7TGrruGjPyoXR6iJrv7GtSl/NyK2LRd2dyIldxFSJy7CKq6xKX8bjUVFlEaPGnHU0hTY7vn9HgFQ2o3j0eUUIllP148HiO5N5B5fSdPGcdUsPpsJ19PInSCU8AHAhWMG9wX16qWxDQeDna+PxHrlYMWLG8b1iFotrcn0oD4paWZIRV5rKwVd3WRSrwKQrQC7BhHNwOKEIUVbKrgFibmbhVS9mAn2yH221td/FGKGTlry5wlft1BnkZrbwWrbKeJpp355Cfks9RR0tDD7H4m00US8A4BX06ZxGV057KENI1KIEkp6fDlJR7b209m9Dsrfn6B7F5OLcxtMdHin50+f1PhXdblMrUXpQE/xSFyWG0+pae2oQKjkhDSNGtVDs6P9tGZIjRTXAwDrOQpiEAqiOEK2KrDRchCtagoA5KC9kd5hrh3z6A2XT6elRS9ainQZ6+URV1t+wNKYE1q5hL8HxKqNv8dIRATC1Ymso6TNk2raNaNiArRtSkEHNhro2A4rp+xze610ds5Bx3fa6CGi+c7pcO7WqUj+7D6vnAEm/F+v4vI6ZEXpoPTPsiHxg2HYVxNJGa0e1BBqMQiVCI17j5CqaDjcivRcw/1jwtPEaTlkrUQ0lDHIMTcIjR2p0ItoMdcSCBoYaveDTFD8p/s2mopelL/LABtqfemgGOWhKRcb6CT0psyaB8MSGol24zvXE0iPQBA5cves1dDawW66fHgA7LkPPXIL7UOa3rdBT6d2munOmRA9ujGau38pQ/s36HxPau2ruOJ+2W8Nx/uujyWVNBhVciuEnpFF85S3Ef1hJ418H1yfeRWiAgxaqHX2VQx2imW/GtTkWoKviffVI4qb8FodTjRakFHV9UNbbb/1IlO019biTiJqPcbaHLRhoSelqLuVhsLdhFJBuHhRcztZ7BgMdbDatGFUBrWpD6KEArKijs7tc9ClQ17avUZO92/P0r3rwznoyLR2WOF+0vu+amssqfjpoaj8uNDbInoFZYpBBusEgDVQflrwvJiGogqcqG5C28GRmUGKzvgaeBIhJpAvdw25DGg9QMbgkODCaODIR19MO2YMtG+j+fjW1cafflEp2qxZ2RH1dII9ixd81mby25oJmYNLSibQhlLTjUjuoDFE8YjQ9w5LUW+N3Bod2GSgCwfcHL071mjo7D43zd8Zp6M7rAsXD4do/vbaDs4WNPNqpehMWP7pVFC6YSypwonpxAkRGCYEAV8PTQ8Z8ZwIB9cvAN+J11oFe41MylKI821siQWs1dwyuQ0VZFYug3BQwqLHKNgqopdblE0ga7tmDbR7nXnjSFz+6RcxpdHT9N0vWtRVObuhdtGirsynAr2cRSBNct+LKAbRakUN1tL21WpErxj1VwsGbaArR7yovU66dTZBV4766Rzq8NysMr93nX7x3tWRHNG5Lz7ph1+VZetv/ygADuOEwy4DqAMAz9nOKgzaCRwAyNPMJyfpxS3SMkSNJ/ot0iEUoeVkVS1jQPEcwF4JIaGMBlCT46jHVs0qsOsaljc3jCro1B53ft8mewj/9qMvAmRF51KPTVNFblPLY7OqgozKElaptkyp8Le0c6nZNqWkNVkpSJYY/W8farGOzfbN471060yUHaBLB92IaOfjc3N2unY66n7l6i+Mgdcjnh5JNixfDOAqD9hbUKu6yGlsEtobJhwpbxNqWDPBS6WxpJo85mbqly0lh3YFIrWYQY0jLXugYukkSwB2GSRLRLarhoLWSgBdye+ZSHTRnvVmGgy20dYpNVK1ZXHLtFESsDa89n72wUIf2lzxpz+ul5fNRT1dBJdnPuzuyfvsrVyLPeYmsuuqQBRh56Ul7PKgNWLHZ9eshjAyw2ka9Th/ZItxnq6nBIY911vxTz/On/+qjMBunDQXhd2ipXFP6zwEAQq5RALTRZ2VUTIgI7Qa3C/GPc0s701loWDFlaSVvEmq7u/g9g3ymSp45MWlryAv7tvUxXhtCS6AYhYV0v42JjJoPVDX+mnb6n6aGZQiFfrowcVB1Dh/bmZYt3T7Wvf7edL4s5pW/eOvKETf2wKugL+tg7y21pzf1rTo0K/MB2yCSNOIC7gDqbuDYPQL8ioA784f225avHJ4ILdnto8Wr6eRpp1bN49pf+WVit7OlpIip7H5j5GK3x4MdVHUAxAivTSe6qNMWAYRo0swvplIJZCys3jOY25EGi5D5JYxyOa+YogZTdwSQarE+xrJqSsnBw4G3tMM3RqRMWtArdOAqDhpGn303AYD0e1Run4iDFJjhPntuQ/V6Y9fRKoWlX/t01rpsj6HrurtMMT/CI4BE3p0W+NCyF6Ti7nrcomBphy+a24w2L4wGGqj/fhOBzdqaO/avrcvHfT27Z8xMlegVyk1g2H+ht/edg01EISjjWCGo1cUIYW1o/52MSEaiUko4GhngoTWggV6nCiw0kak4RImU4MRGUBfQQFzBWqzoGIJaXkVpX3NiFQJHd6sYXAPbjah3sloJttD81ey9PaFND2+MsTqWP7mGK0d0VxDBvmNFzUa2179r7+tk77R59CUHbWqinOO73//JBS4tBctnb8R3w/tU6orhxbqKMZs+kL28t/mf/yqgeu2dPw8ovR4JiRhgNJBCYE9o/62AthGMqlWQSSoIVheqFWcZrkfht6MKG0jA2w2ODAAvBZCiJgBNcjeIhuANiqK2V1KAWA4Szh5DawQ7UPUAnxInb30CILBZEJEkP5YA75zJkE7Z/SEnvUYfNuff7994XeD88Ybf/hxo7L4S/2yJcV62bJOr7FcbpS/KXdoSzqhSRcPB1q/5BG98fF31XSeY351GLOh5bMeS9vudKg3nwz0sAg/Gpfj5EoQvZDycF8tWYGUW0thZzPS2Sr0jTK8RwZTv4xboX55MYM+HBGzSJBBBIxGEOXBdhoKNjGLzgDg4VALA3v9eAjOjIvfc+Ggj+juJHpOCR3aYqSNYwo6f8BLBzZbkBotMAfadx3Zav7cixjdYSHkPYgmr5xaZTfUv25QVHkzEUU+4RcTdFoIFTUsVqD+AqAuEI1m7hEHzI1IxxUcpbMjBkR0PXreFWDYPUinWsJcMRv/mN5gQQOyH/e7kAE5egeDrTxsdutkGIzUy7UWwCF6k0jRGdo4KqF3pvcdRDeH6eqxCGFOifZuMOeHIhLvxYO+F6UUFb3j8Pwhuz184P6M6IdbWF7ZUdW+nuI/M6mr5x36WvSlSLEAEzIj97Gw1FjxGYr10WhChWhuA1gNbILDT2WW7LfWAWARe6cAEz2llvvJsWgHg7luuJfVoMNb+tlLPbvPgx5Twu3Trhkt3T4dpasA9cHFNI1HW+jaUR+9fT4hAIx6nMXrEb4gNowq58cT0j97D39aYfUrKz9m09XMxbw9iFYFixeIVCZXA+YGpGoxAzwSVxDaCFJ0LUX/WsIkxKGrhORYBXkPUTus4uhEPWV9OYD6C1bNoy9OXanQOyJiB4To5LSMloOJFT2eApBDdHKnhW6firBEeBav529kcQwRvT0Jiy5FN44HQMp0MNj1czOD8o8VkHvG5TbW/4Wrv34B04Vcd72WRnZZQGwY2HRIQT7cGiE9GhUrqKvxm1xrU55qfqyVvEVufSmTK/i9iNp2ms12sVnu6a9CzV4l7Ihj++0u3JdTmD86us1MbKYn2sCak5S7mqaLBz1080SAZtId9OB8HHPCbqL7k0QPponuTdKR7XY6ut0haN0LFw8F/ryA3DMslaT8NbN6ZdZrQc8K2wwzVgQxnmswZprZELeoSmk0qUPv2gTVqY68MMYDTujOYSllIkr0xgrU6lqk6nIw6WYY491CtLKIERHSuYeHy+jSAQfANdM59lKtbDGGrFW0CyrRrVMhengxBqAztHlURMe399O9s1F6cCFB9GiSL4DLh3108ZCfJlO9qMuh7OWjkafVw8KSiZZ92qQsvwZnBVHbxQQqgZ7X2V/HPu9YQkGsPQPImWwv12b0v9w2wUliox/THZjHwusj/bRhwoihOzO0WzXLfKszvZAhMcE/LGYXZjLRyR7rmb0OzDfh/cNwb0JNtGVcQo8uRmCeR9BviqFqaenasQD0Xg9S9ATdPxdjAgYHBym6nx5eyl6lu9OfKiD4lOU21f86ZnVzTkMtGRTlSMNlBBbNShX6XESuBmm6hQmUIABglx0uhHY6tlXLihQb975mFubXjrADw+Rpz4ycI3PbtIpT7l6AumumD4K9lk7ttiM6I7QH4n060E57ZtW0c1pC984EaPFahubWqejGCT8iOkXXj/mJHk7Cg3Xx471wdS4eDuNzDMI+2V8vIPiUZeqr/HPU4Hx0oIuB9JjqCI8JU4eou02sL4ecbRzFvF/HzuYCIk6K+40scEC8YFFiKNSCWxEUqG6azcCdmZQDED36WTmYcRNtn1KAXDnZhTmBFJ0JdjKJi7iaWR07v8+J1Gzkz9q5Wsmka/FqQiBeHPF0awStVJoJ2Pk5Wx4uTqEOP20ZlZX/ppetyAtGPibvKRPqJYu6gqazGvJZGkgYUMP8ErdIYykdR/Q4boWpDtiIvPsu6hKM/Wak3w6kaymishPTDTIWOhCtiFQ9hIw22jwmhrDhpyPbzGyej8e7WQbcPC4TGDXqsh2tVC+UKy1PTJzYrqc7Jz1E86u5jSLaiWMX7ZiSwK4z5AH8vxYQfMrSSkv+Eb1ufiiuEUwFBtRjrCEMhAuPedZ5LC4mN1ohr7mWRQ+4RwCWzXGQJwn3wohSHtfBZARea6KptAzAKbgWY+SFJzdgu3Hk7t+g4ZS9Z1ZFmwD6ka0GVq7OY+zlwn43IjbEUb5+qIsObzUR0UGi/Awd36aDg5NFpugAN5DlKbfuHwsIPmVhyvH3kSYX7YYmQiSTRlLMt8NomZC2OR3DG2WXBX0x7rchWpt4vGU4rkZkq5glZwMtQmvEwgYP3LkbBQcJ9+u4rx2NiejQVgtAE2EctZNrNqIWA2xaYVoRwLqwdcPILPo87p/cacL72onuDBPRBRzrhOE3Jlon97iREdoXLx6O/n4Bwacstbj4ZwcszQ9gIkDrBRCJPoArZ1co4ZeRTVsljObwpMNgVEFJXydNpvvY+A87hPrZROtH5VCrZDSdbAX4jTydGLTX8868qZQE0S0TyBfSc5D93tXpLo7mY9sMPECO/heqVRT/vpNnnbD/BxlAIuyXJaK1ONZzm7RlSs2Rf/dcSphyfHD3dPgZtr4UUvRHNNLlhxJ+KQOJiQyh52WBA+MsfGCslG3BQdRpmOK0eojZL9qfTrb9AJgQoXitAVHcjRqq5roK0wDA9tHuGSX3v0jN/Px0qgsAeUGqXEjZJmbIqLmCRwyAtdgaYhMIFafq4zvMED0itACA0TqhBHQB4AwRnTt07mD4IwUEn7Jk7d8s6m3/bpdGWkr9ilKk5zKK+RVk7KvE4xKwaBVNpPWCLs1RnPC2g0iJeRwnG2hiBpwMSCGSSMmiqSZhF/uGcR1bhRhxQY2VIrV2wSRXIyUb0SpphPFYgBblfbFwiZhA3T0bRx020/3zSahcRqTiNMA3w07U0a0TPiZrGJCn8weDRI+miWhPdwG9Z1zS9qW/pJGW3Hcba8lraydd73LSQH4MOTt4PCfg6CSM7QiyI2+CXp1VCkN23D6lQ3KexcK2Dx5yx4gNxIoQ0mkfj8NOpqQ0Gq4HWBZmzhhmw3yTmrVnRDSLGZyiL8SJaCMEjShSN4SMC1HaNiljKXPfOjXtnlWj7VISPVgNgNfcv3Uq/ksF5J5xaXvLX+vtWGoyyEuot+07pOp5E9G4imy6Whx10J2X86AcDgb48DYnmwbu/hqOaAgd7CChB+ax15msmDBKyhOImxHB26d6kY5tABeMHKkcFwCAjKPV0dPWcTGivBcRHKWFa1me7tgxrUTEOggbohH1FmHHAEA34nNkRA+n81CwjGd2qAoy5XtZve3f+3Fp23fOKkVLyKZvIIu2nnz2TjKpVgLwN4i3mBiFYfZqGPrNsPMG2AaE1syz0BnYhOOxdmH6kPvf2SEpa9owBhCJchY/No3L4fVKeRZrItFN2DDOliKz5VtDzLK3IkrRWoF0xej+2RDlr8VgQATp9B47SFib4B2fvXEi+uMFxJ5jyTqX/rFeVvLQqm+kbEwH46EL4sdK/ukFn5U1aCGyeSoDYyxI262UgtMU8Yi5/ppUVQAOSlZaxP4vJjKYNQNUnt7YC+BQU/n+HI5jOwEaEy6PYCqgBpvQE5uYWOF9ANOE1sksgI0MYEc/LX+IHX7PO4BXWI01bxTpZGXl8s7vzeuky8hrbUMvLKGgS0xRL/RptE3JkIrcpibBQcJtI/RrgZytIFNfOU95QNCAMCLhX5HZOtXHoJ4EWeK9PVNKRKicoxzMmff5QOZEL6xjQoWdA5Ao5cJgAM9J30Uqv3HMCx/YL6Tz3OGt1rKbJxOF1Px/Wcqe0tfFrd9dpRAteYwZZkH04L2+MQCcDMopEZDx/t+xlJZFEIe+Rtgdz32zU1/BW0ZhVPAIasjRyhu5plJCH91CAWsN+mNm3pya4SCBIXtJmDG+eTKIiY0QTcbbYFIo+Tcr5i/HUK+DcKK6H5/d56uBuvb+zEEVJjyqXlN0vfVv8s7v3jL1lZFGvJQNfis0aoNcaKVwX1PJbpO5r5RNB7+1lskWtmWyf4wNaoIowrXbqhPqdxMTMsidOOqgjNWy2IG0zGoWXCM2G+bWyujoVj3dBuAgXcIQ/K0d0/J/e3h5pADu+7mWLfnbIoNs+a9pxG9utqgqFjHCI4DGRn/YyVtYeKQWk5XCVkwK2mp5B0DS286tDc9s4UCrxFYj7wzI9sKEkLM5kRwQ5M5mHondPatF9AbAlHUczVC8UIP1wk/7bT4z5/21beNthbT84lJ2ycfkojdLVN1LL5kUxXn0yEyyLKoV/NNCHuMqgCwcNdw3vzODVcx7goPWlWiZJDyj5dKXAtB2pOdG/imHSZj6g4Em7Ecyob9VsBqWdMPNGqjKQ768dHCzseTUXh9mkAvrha+W2m8VSTve+nxvxxv1qMtn8NtXixjdQdQ2kFu3HEAXI40vIZNiGbTrSjIpl5MLQ3Zh20qAXMkzWRgiF1I4/wIA79ob6mXTYf2IBISqQ6jTi9ijdGYk3FIPZ+oLPa1LC1H7QSxsIPukrON7f2aUL431y5dd0UneWLCri8mifJMMvUKtfouMiuU00L8CAJfTAKLdZypnoLG7H6kb4oi7jnXq4WBjbjjUfGU00hrDFpY/S3iaP/mS/JmFNRGtL+rrWfEpt778i0bFsipEdczQu2ROLV5y2axccRcR+9DTX/YI4D9Wd3/3oVn51l1sQruMqcs5WIix0bi0ym+p/iJsv0/T40whWl/21VD1r0WNVX//OvbyfMLUV/V5t7HhpweMVT+PaP55l67kp0P2us+rpeWfMKobXt853VsAtLAKq7AKq7AKq7AKq7AKq7AKq7AKq7De8/p3WdEE8tV+Nn4AAAAASUVORK5CYII=" vertex="1" parent="xqXmZL-dFiemZVTsupqS-3">
          <mxGeometry width="80" height="42.67" as="geometry" />
        </mxCell>
        <mxCell id="xqXmZL-dFiemZVTsupqS-2" value="" style="whiteSpace=wrap;html=1;aspect=fixed;strokeColor=none;" vertex="1" parent="xqXmZL-dFiemZVTsupqS-3">
          <mxGeometry x="40" width="40" height="40" as="geometry" />
        </mxCell>
        <mxCell id="xqXmZL-dFiemZVTsupqS-6" value="" style="group" vertex="1" connectable="0" parent="1">
          <mxGeometry x="40" y="40" width="80" height="40" as="geometry" />
        </mxCell>
        <mxCell id="xqXmZL-dFiemZVTsupqS-4" value="" style="shape=image;verticalLabelPosition=bottom;verticalAlign=top;imageAspect=0;aspect=fixed;image=data:image/png,iVBORw0KGgoAAAANSUhEUgAAAHgAAABACAYAAADRTbMSAAAv+ElEQVR42uxVA3gjYRDdnG3bti3Utja2a2F7tm3bRm3bOttWNpmgtj/eW/5+Y+Q/KgcAEFRfBCEEYFizi6amTZX/lc1Xjpdaj2FNanpW4Vy4iLUo7MMwpGh9uli9N7ZwYbOKzvmyzqVznieDCxcvts4SGw1J4Ok7q7j/R+UoNORLpk6bysZKtguVDgFYs0y+5hLBsHbdle0ApVGqgdJ5VGsPr1kab2+dkexEOpvrxtYsGCY8c7LhRzM036SITe/m2hv2KGn8MxztznHujDuxrnS4aqN2w5e0PPvtRjFcZZs9bNujR8/6K6EAsUxmc1AQVXliAyIAK68guKhSZqN5aFE07fOY+A5jpcZwTe8/WsVwSmIaLbg4Zky7Crio8FykviiFrRbkT1oMT73pKXEctamqOaaFfCs/6/kazoTsVYI311kmEO/KgAdMo9eAoQNSBQYBkXx9CBRbwKNVPMhzIz1yXTJ1scrICNIEM1y8xJdnBhfIOlK9Uf1hq/oUuIOq49yls6FT374T66+MLbZdAOO2K0u6MJ3Vx3mgwEvTeQZdU9nqvGB0waoDS8cvKxpvBCNjCu5K/i91praBI2uiI+xIcMZkHmR7MyDRkSJ77sV7fFprxmKkRNReXNi93edtgpVPxBbSVLY+XDdfKE3lGcCnlZwP0Rwto5J7VySnQHfurHRvxucwJypcZBrh5+kG+FlU+9+WZePDwinL4S5FQ3qVbyxLXS3G0725QFkyRzJ9xFANldP069eav2DSgx1682CV3qILWuMG+3rNHwfCOWOfKMZb1CtywVGv/RcPss8je6vgZJHFnjxnGj2SP38wUkdUZLgMnppVjkAnKo6+HIIZSyGMb/gjlGvgWFz3kKZIA0FpsKK6e8jz8Nd9K+C+A1VyiqSO+wpRia+IhL/d4gI3LZZfKazRX1fb6IaR5yeEMPXBj2sMfgIL3F9kDbdouni2GwnerCBDDFN9091hSEvlGtMK+LqbLWeluqAQ5cSQKAwMl1jGcMRoEUzs3AZ2a07GA8hqkOxIg3fr7OAqy0RiNH8WjB/Sz1LFmaY7LNaN+SjahQXp3oIv9vMnnPHhmUseMPX/3CEuoyN1QWFakmyz2weHVkK6PQphVF3IdGfJXm4SPktzRyOCKeq7wq2WLktHDbqaIkVCEapTcOGcLK7WpCyRxq1ce51/cUw12LN8guS8+by/n3a6w9dNIkgT6py+ik7vWkGdq5fTLkSQZs/W8vY+WskBXzERP07UgyMWanCfj8IDISq7yzaRnjOa+9N0WK/uknWkRZ9W0iGBow2XLebh99gasodCfQhyQiF5tQBSVgpkn3e64Tl2RuCkNifIdOGsYRXpwcVoGf+8tRoEMg1wP74l3GbogGjeBGjXssV39qxRcMJgBuxdMhFWzR4K4gXjwWDODFnPzm3HKde66S++FSoyh8skrb9r9BbAnAHd4byNYi+eGbhqzglrUkfjSn+t4xCbtO3KePn5tzQsOxePfPQUz3iUQ3jx+nn/tq06zBowaBi/Y8/e99sP6pPlJUT9jy6ZMj8/eyPl0xQghIJaKwUAwo8NVGrrpm38m/9upfNH3r45QFt2bWn4W2vjCFcqM6mKVc+2LbRt23lp27aVFtJmnpRUkkqZV3V1pC0t9M0ZGWnhJS3lfWPMMa9wzvnPP9fca88V4I2iQjfLJXen7/n9i2fN5SsX7c653R97dPbQr33+NZU9gHrszfHvwFoEwJe/89XXfu3nvP6Pd87PfPalrS291uk7c1NTlDxBqhK0dcTppVW7d//u6juecePH/c2DZz7+4rmL1uAXO3fOO3GByLVLozlJEIU4UgrP853T3ZGytYnneUL8zVMP7Hn5PxFZPLDVec89K+0Lf3DmkviZv363+cE//wAntgZR4nqvvVqI9fPD3P7hxVVzuhfbS1fbLG9tttOGuwawasxP/MbJy/zFxWX/A8ubrGR8/h+eX/nLn7z/7Il7LrW/Wv47mg+dPeheV5necVcmHbk26IvUCndmbsbNPWxK1W4OQnNxY9N2CuXUdyzM7Jifep4s+3d+xrGdVcAA8p+sSxZQLzma33zpa97xU97kws/QnJzqpZlx/LqdmZhxdszMUbglTqxclVsjRaO6YA8u7HjpJ7z2tX9aHPBeDOjHnPhEeRcCsEKp722W/JdGoSr27trvNOsVfE/QnJ5mEA3JigTfL8nJyVn7e8fPfc3vX9p602IyEt1B1ysXDkm3T3sUsDXYju6QLMpwJOROze3GeSGl3GN8/zsACVjGJfutEjjxQGw+fmKioZ979Aif9pLn6R9860vLW1/6lpvv2+h97btXO+KGg3vtF730efbjnnodb79u5wDoP7qc3HNfL/q006H6jrW4+Hzgh4GX/uqHTt4OvFs+keYDMCsPxFPF9MzPaNc9sNztWu1IuWvvbmoTNQZhLMIoFzO79slCeiKTLv04tX1lTLNcef5OOXMDwJ3/+DrT8EsfV1volb/6PZdaf3zi8tqnLG/GdktLTvUHMq1PimG5QSY9THkCd3YXUZFtO+msSB3X3DA/deOOuvi9arn9tYxfLOydIHki3IUFwNpKkim9sr4iu90Bk5PTWGPpdNtMzc4jfYc90xPiwYdPiftX2rMntqLJrcQSW0VaKOabU+ypNLh+eoKnH76G2elpeq0N1uMCrQqZZJlNtb4KaAtiLDDw5++71vmGO45888c9/Xbv6L5dzDanpLKedKd3f99dL77t/PVTtT/+1Gcfc1ppYhMr9VP37T7yQ7ce+STAwpifAb6KsbiPYQHkExH3+MY93uT80R+tTc8/azNITBhlslCW6ekZyrUG0vHxS2U2VpYxWUHFrzIII2E8h4XZmtuouG+DMQYQ4z5Nnn/11dPhe13X+9aadPe02oPi7JmTwhUav+mz0rtKqVGhOtHEK3lMT08xv28vfRWzdPWK7Cqjp2Z3149MTX3z35T7v/8zr3rm/seqxBNwswDhutIpedKZrFbEYNCj5rgUaYFrJdEwoNMeMVtvcPzSIt2sMJ20ML1YMUpzoqSL51qun9tD0wpcpaigWVrbZDNIkI5r07wQRZE9DPACcGCM/v6397/86XsXXprZsk6VkL0oEIVwzFJn4Lz7wXN3apX5gyQlVkJU6yXRSVOmZqa/8+5PeM4+PgKSj8Cjuyfm8Pt/tza36yk/25iae8dye2DCwUBiLa1+n1a7Q78/pFCWWm0C4ZdQRpGpjDiN6fZ7witXqZTExz308/snYYzlez/jzf7cwd8p8G/rBqltlCtm/845Lwhj2u0l5iZLYGL67SWMTZAeOK6k3pxgfvdhKnP7cBrzzuz8gimXXDvt21d3C/VXi6947ssAcyeIx+lmC4iKlE4/SDi5tMZcvU7cbxPHCRO1adrtDs2qxS1LLo0yNFIGhZJnBxFBIbjaDVnvbPG3D7+fu//ir/m9P/8zfu2Pf5e/vnCGxFqksCLXhrwwi8Bj/HHef7k0vGutu6F930ibhFirUTZxfutD99nFfvzy05u9Fw6CLod2zMmGX5PTjqNTIeZ+a7H4iF2y8zi6Wj0TLu264dp9v7Rv9543f+jkGXtx8ZLIrBVbQcipC+dxpIMnHAaDEb7rjkuZdbYDQRiHnDx/XhRFjouuu3ly9ps2Bw9ba8XKr/zYj2phDqeqqosok4kshC67eLUy1hG4XpVKpbGdS7h+Gdfx8Tyfku9RcjwkLkJDvVkXicrEyeWrZlk2ZpTizUcWZtTM6sb7AXPv43Dyvdvl/Zkq+oLRaDS/1h7g6EJUfMH+PXuRNqFWdtg91eR9J8/bB/pKDPN8LYfOZL02KaXAq3gCPC6st9hKUrpFQTstGGQFYaqs9iqyEwS2E4Q/CCxeKBSA3bl7xwvLrnxjs1Csb23K9dGIYBTQCkZ8aLUrummBwsoJac2kK6zvuCbJcnPvRiA/sNL7UeD0v1tgwB44Ov2cQ3X3V2675uBzVbVqzpw9KZIcUZ/fS5IW1Gs1jh46hCOhP+yza8dOpiamyZUiiVPyvGBxax2/XDa3XX9EJkU6Dfz8wYf++AXdUfjFm2ubJRUb6lOTwrqgjUF6HtL1KQpLEMYIx6M5OY0jJeWSj7AWrRXlSomy72FVwekLp7k6GImBP2OM4/jG2pdenmwePOMt3AskwywS/6q4ILbXbyZOn3x6lJvbq55r4jwTgyQSrV6X9505x3vPL3PvyUvcvxXbPg6ZUV+qpPiV6Xr1E2arZTvdqInRKKUzTAi0YZgrNoKUUWJIsgLr+aITRlG73b8LGGWF4lEeqE/UXzhVcg8sbnXU4iASkVKsDmLTU8iNMDqVCfnbslR9Wpom4qHWUJ7oJ86l3uhvgK/8dznYgmB73Z13oy/ZW3V/7FDDO9CsT6lSY8KZaNbEMIhYurpBo1pn/949xKMuURrgOoYsjRCuR5opdK4J85j2YMCzb7uDaw/sEYvLi5ObK63f3zHV/Fgc8/wwL3QcBE6tXKZSa+IKB6UtcVpwZXOTWr3O1PQsvldCSpeiyFnfWAcjmGpMUPIkE8060XDAua0+gTchtLVWW0ycJLdHOnq+9MwDwEaU5YJ/GcG993Jhef2P53fv8BNtnrstiriw1eHPHr7AB5bbrIU57cxY4Uo5U3E2S0nry4ATplR7VrNSuSZPEt0OQ7kWxAxyxTApuG3XLOujiOUwIdRWZNquLrc73wMobYzgURb27r5klP6U9ih2QoNIrRWJQq6HCa00eyvwo6ZUutJL9a1Lo+jc5ii6pxWF7zp5abn7RAV+bM39Kyf53BlXfv9O36nUXaMm6jOu7zWwSPxKnSBLCQd9Jpt1tOsiHJd6tcFgNGKrs0mtVqNaabDZbpGqnKfffKOw2/nDD58uv2e1c7BS8m4sOc5O4WEnJqpyOIxo99osTE9TqTaQWhHEEUmhEK5LyS2hC8XJi2epVmvM1idxLfieQ61Wob25yalexlD6JHEiFEakhSpyy/5Bmu1caXV+83FstmjgL3vGXtSWV+6tl92dEw3xvOsO8KobDvD2Z94u3vLU68ynPee22pGJ8rXAb1xV3oUkzz+uLIWzPgzFcj8UuyYbfP3rXsYz9s5xzWyDa6cbxrFKDvP8r4Bf64WJACzA289nElg+a+1CNykmB5nqDgoTD3Ilu1HyHcAvzO9qe8CD73lo9SeBnwD+COgAPOEma+NoKACUtnMugrzQWhW4Jd8jzTPW1q5ilGZudp753QtESYDRCkcI0iJnYnae6ZlZfEcgHU2lVMJVmiBJ6I8SrrQDNoL01e+/2jm2EiSiFRmnl+TEJmd6Zpogigl7A7qdNlmUkCQKbSxJntMdjqjXpjiy5zA2KyhUgRYCYSzdKCF1S2hrUUajlBJIKQutrVJqAJjng/M4Gkqeemjf1OuP7ip9xrNusp/83Kfx8c97Hq+446nMVioMRpnMVEU85cjNb3jKdO1zgA/30vQXz3YD51I/sq+45Tq+8fXPZu/cBGfbA8qNCXZP18SXvPLZfPfLj+262ht5cKd4110IGGN+6tKyAD7nvcP0lg+Uw9uXuuHti1F4M3DnynpLHD+OOnht1wFSgIXDR90Lq5uSx4H4jGPH+Cd44Y5mAXzz0Xrpa6+vOnq3K53ZHfOsDUeE/SH7D19PK4owaDAGozXKFFy5usLs7A6mJ6cIhn2wEmlha3mVG48cIFXwPb/9R5zsx3auWRPP3D/LrmaVHfUyC2WHg7v3042hu77C7Nw0a+0Obq1BY/ceJmtVXGMoSReVZIhSmUa9jGsTpmpl3ntmkfe0EgJlSOKIAhjGqW4PR85WMPrO2R17vxLwXvOa1xT8y8jjH3yvAZ758oXKvc/fMelR8uz9Z5dEtTHFzOwC0pHE3Ta7J+r28L59dtTfDEbF8Kmf9DvvD1Y3+x/4gmNH973upuvEUAjRDkfoVGOsYnGjzZHDh0xTBfLC1bUvnW4e/V7AATT/xUj+KY/qLV3P9x2JEBYkuI5gdnKSA9vuKQqQVuDi4DslhIXBaECWZjRqVUq+DzhIIaj4Hgf37WJp5Qrve/jBcfNhECJUmk6cU3V9LNDNDctrV7BFn6M338zNt95Ko1GjpuGpu/ZyY73E0ZrL9bvmuPHwvkc2HJislPENXLl4YdytKulQpCnGWJTWVmnl5EpZhbwCUD9+3PIv8K677hJwF/f0veZzptyffPHCrNec3G1ytyImJprMlkt0NlfJwiELk00aMzNifRjYPYeumVjqJT8KbD5/Z+OTd9WlyoQQiRUUWsF2dEYB0pfU6nWxMkxsxSt9/dyCex2gT99wg/zvF/g4Yxys73sOubVUSx4VrdH9HpfOn2Rt8yoL0zOIPEflGbowlLwytXKJIktwHRdXeORxjjAwWauRFYZza21SDQbIjGWQKjpRhmMljucwUIIg7hGPNuj3O+S64MCeQ8w3G+O/XWpOjy+XKl6VhUc2PCYnmZ2aJR7F9KMUZQxSynEXrrRGFQXK6GFm1BmAe8HyLzHeAcN84yHx7a+9Zt9NldqkjuJEqlyya8cCU/MLLCzsQKcxhdXj/1WrlJ1zVxbNnzxw4SVHjHrGei6ec26z51erJZ0nEUqBX68hXMuB3QtIUjGIE7swtzBZJvr+t919t/Mu4H/MwQ7WNdZScSTSaspTc8wfPkpQZGiVUi+XsEAcxxRK4UufernB5voWq4tX6feGrG1uUPYrCAOtYchWrMitxQjQxo7dvB6lYyc7VuB5JXLtMux1WLx4mpK1NGsVet2Q5c2AS4urnD1znrNnz3D+7NntOM1DF0+xGIQMtIPSCgsIITEGWyiF1qaX2vQcjLH8E86cOeMAOjr7yjdf45vPDqJAK78kvbKkChQRPHzmPIMkZSQEV0cBWAcfuOdDx20/TIiy/CvaUba9uxfR7nfFVNlHCI9UW2Ynp8ZVbBgMaFSqUtYq2qJf/q0vferHAea/XeCd5+sWQGB9tMUX0rbClJMXztLrtDhyzXVMOpJ8NMCTAgkYY1CFpV6dQOBx6sp5BnGPickGs7MTJCbn6nBEpg0a0FbY3FirgV5e0C4U3ajAaoMjfVaHKVeDGCEVpy+f5m8+9G4+/MCHOXXqFA+fOcVDZx7m/pMP8jcPfZh3n3qYlTAhzBWOASEl1hosAm1BaTsIN8PO8ePHxb/yguqv9IM9u6X9YWOFXe92ZZF3RHOugTEZW511sjREqpy5+R2Uq2WmJyq8//RDnN7qOSmSQaFfnaXpU0e5YrXVlvNzM+yYnaLku+MmUyiDyixTjQaeDrnUGdp1r/lO/gcc/BhC4JYcSV4oWnHK8cvrPHj6LDbLmZvbydbWGsvLl8nTDN8rI6yl7DnMz0wwUfW4dvcC1+/fQbMi2Br1aFsPU6qirEWDKKwViTbkFvqZop2pcU5MQZgZwGWochZ7ayx3N9kIQzaj7RgGrG3HRhLSTlMybVA6I89DpCsRQqC0xmKFsRZldQuw/9pzzbKsEQTFTyhtdySFtGlhxVZrE7QaV5S56Qa3XrOPGprlC6cok9MfbfCBS4uElMlVQaqMn6b5rHFcOoMWK5srLFRd5ss+nqxgtcBRUEJitZWXEkdcHSW3H/jx7z/wPyawNNI1xrAxDGknBY7vEmeG88srtDtbWCkRxnJ4735mmk0qnkOj5uFLxZF9e7jl2msoi4yVS+c4c2WN2J8Av4xyXCscJ7VQJNraUFnbThRDZegXirU4xm9U2b+wk6KQ9BNNoA2hUSRYRqZgoAv6+XbODVGuGW5HfzgkGPQxxmK3QxtDsR3GmvP8GzhOUlkZhjdeHo7MUGVYUWIUZFw4dW67/J+jO+zT6fc4fvEySmumK2U+fPocq6OCIgvIpUeCYzVC58YwMg5Xlla5vLTERL2KDvrMT05wYHaKhpOwFmR2I3Ntq9ddDraGvf9WgX9yu4ydmZ+3ANpotxPGdjlIWBoktDLF0ChSIVhqbRAnQ/bt2cnMbJ1KSdGse3hCobMEF0NnNGJla8jDi5usxIY4yciUMrJaF+Vy6Q+MlN9pEUJjcV2JFoL1KOdqoIgpONvtstrPGUQWbcR4229xFNMtDEOlaYWKXqBobcfGMCcJQvIgGIugrKEolFDaUsCDMMbyL9PKcL5F1OqyV+QMdYpVHlu9AZdbW5xZWef44hr9QpMry4fOXuZSP8VWGyjhEeUFmXSF8Bwn0cKsBpqLg5yV3oil5RXiImQUp9y3ss771ns8ONBsjQKxPuh/MzD6H3NwN4kra3Eh2qm2ibFsJ0ZqO1tLYh0ub3Zo97tsttZZXVvlysoi950+y/svLPL7HzrJj/zuH/OHHzzBX55dYT0T5Kqw1nWFtnZUZMWPzCTZt+RwUYttpLSOlPiuy67J+rZ79xDkmkEQ40qHXqzYCjOiTBGM93gzWo98nqvtMKg0x8WitCGJE7JCkeU5SuvC5vbkvyXwLb/7F9KtNH9xPYwf7GZWbqSp6emc9WFML5P0FUQGjHBpjUZc6QcMU02aZeTG2FRpGxb5yLryw4nwZCszJjCYrTThxOoaH1wL+PUT57m/HXI5FrqTFLI1GLx7ab11z+ffieS/GId/wt/edx8AolY5v9kPnq4Ruyu+ayuuS8VxhFKGWCt6ccJKe8DF5VUevLzK/UvrnFjrcKkTj1/8rND0M01XC1LhIF2XzBgRJNHvAt8LKFmtdhzXeXPF8/AdV1Q8l3pJUhSGiuNS5ClhlhMpTbPm06yUAUiVwvOdsfhFYQhyTT+HMEqwEoTnEyYxYVGEiQm/BYj4V7iw630SKOKitlH1vHfMej7WKtGKYkKlcaQg1AYrDYmGQlkUMEhycoQZFVqGefZNWweu/dRSOKo7vv+ssucIOS7ZiI4WJlXapHlOrLXTCSPWh6NPBy43JnIJ2P9uB9uTF5cE8FBvs/eyWIi7u0ixlhViI83NVpIT5IZeUbA8DLnQCTndDlgOc4Y5WAGOdBjlhq3M0ss17VFo20kuWkG82uoFX/SiV8TOVl6II9d37s6t/cthrkWotI2UYTPM+dDiGvc9cqllNF1V0Ipj1oKM5SBheRizNkoZRTmDKGMtTMY9gjaKkg/GGgqlrAUKrTvlrWjEv42+/faPlX859f4/6qT5n4bCkcPM6F6iSJVmI1ZECjQQPlrFBIJCOiYqlBMk6bs3O4PvBgrgS3q5eutSWKxvZNbZzmIrzpytNHOX40SuDMNkrR/8/KXVjb/sjUIB6P+pEm3vvfc+CXRe8IrXv2NUmK9rpSrZSAvZygqzLRYGBxxJpBS5YFzC20nG8ijhTGfIhX7IIMupuXCg6XHzpMOrDjaWv/551x0C9J0gAOW7/jfkUiSxNjZRxg7Tgnq5jOs5LPViLnUjWokiVhopHK4OonF+++038rKDO9jfrDBXK9FOMy6OElb7Q+IoxlowRl9YhpzHhx5Z866lUZSvhbEdKq3bmTKDvDAITCfWtpcWNii07eeFibOcQZIOMqE/C8g4fty5Y2ndAX5rKVIvWI3zv1gM0nNLo+C3l4bRV64NwjdcHaXXAZ8MYyz/DYjH8/1bbrzOAq+puvyob/ReT2tbd6XojYa0BiHWWGYmm0z6DtPVMjdsd9Cz9SqztQom7NIoOxw9cMCOOlvigSuLnTDRL++k0w8A7j33hiI+2v/+Cc/5nFnPUXM1z60iGQYh7TAkShW1kg+M95a5ZeccX/CS53LNdJPLVxf58MUrTDWmODMI+MDSBkuDiCGOqdaqMs7zb/3kz/ycr+XxId/zV39ogJ9pSvkp4SjEWNBa4zgShMCVgjxX21marSCS7Sj5rM1W9ycA56085kbnbtCAZG6uCoT8DyL4yIjnP//5znDYUcCtNat/e2fFO7y34tp9VV8s1OtsDgYc2beXhbrHoNtl59Q0WsDCnj2MMo0yil1zs2RhpnvtJefElSt/+mMfbr/xBcvL+a9eu98A13vW/vGE7+2f9hwjtHb6YUyhcqy2FFojsbz1tiN87qtfgchzzi9fIcoSLm9u8ZxbbyIe9DlxaZGFHfOc3GjpD6z2ndPD4i3n1jZ/R4znyj6iY+Rdd2Ff/OLnHEyGwx9N0rSOxZFC+EDZdWQljJOq57llR4hGbxD+9uLa5tsABzD/xJHyTjAwRv4tyHvBPvZz/32MxeNx4N47P2/f0Fn9jiMTlS+6tuo7+2ruIzNC5NZlca3NdfsPMt2ssdHZosgyhHBYvLqMPznLkW1HuxYcHGpuoR4+85D7gUvLX3XvivoOoHQhDzPg62ql0l0VY3C1luNryjQliFKO7Z/ni198Bzt82LPvJtZbbVY3VunHKcbCddccYmtjheVtsW84tJ8jR47qlSuLzv2nznzMZ/3FmV8DhBDYJ758PWYAb2JiX6XRMNVSiUqaZrUk0Yu9Xm8ECMD+G+ax/A8itudy+Qg4Kuhq4I0Hq/LXbmpUSk0V2/0zDTG7cy8nLlxisjlPrV5DGDne/ZHeI9lhcWWFExfPcdOhI0yXy8zW68xMTtnecJNLi2dHVzZbL20958J9gPz5n9/f9IV6ty+42aSpTZQSaLPt2hv47Oc8hemJMievnGJ+/iBBlLPZ2iLLDEJYHB+01dtubrFnbgfPuu1mou5VHjxz8cKFgXr6u+49MRSP/4UWljGW/wfIjyTu3XffbXJHXTvvi++7tl4q7axYs2u6IVzXJUozRmHElZUlTiyvspmmdLKE1ihiYzCkMT3D0T0HEKM++ahNMupgUWL/gUM885ZbJg5OL3zfn91FBcYMCm2/OS00o0KLAxMTvOtFz+DNR3eTF5r33X+KfiqIcbm6uUmiLK7nYxzINYwGOUoLpud3jMeJVto9Oz81eWTSc74BsBYkjw/7aPD/WuBtYcUNN9xgb3jrW70F4X3zdZPl/QcrUu/0m3LHjoO4zSmk56IeLaXzFR8nHBAMuni+D1ailabenGRm/yHmDl9Pffd+UgHr7Z7wagvmmU+749lf9ykv+HrAfNfTnuYsra7f3Q3CP07SXL1y32Tx3Gv3cHntKrgulZlZ6pML9OOI9W4H6fpUmvXt7ICBVhiiM4vKNYGyhBGkqbEV33zWT77haS8DzHhK9MnBRxb4ThCAuSPrfvqhZvlttzSr+ujua5zZnYfQRlJpTGAAheTwgcPjiYsojum0O4zCHmESMRwF5KoYT0K6QqC0QguXJEqwAjG5/5C54eitn1t+77UvAfT9n3HMHQzDd77yyJ6PLTlFd6nboVmrmTBNEZ6PQmCFZXZmkjwaMuj3yAvDWq/HIE9wPTnuciUSIR1xtT8yk2WvUjbc+crp6eb2PVhzJ8gnvcC/+Zu/KQBz/Ph7n7rT87791opkosilUJo0jTHGkmWaoLDUGg2qLgghmdu5h52zs1xdukgWDZlvVmk6Biceko56GKPJtcX6PsYoQVbY5bW1ZisWX/EH599dO34cgNFCvbRzI8x3dHoddeTaG2W15KLSAJunhP0BShtwPaQ2CAu9OGTnTJO9e2dpTlYpN2qUGlViYeWVdqh3TU4+67Pe8Kwvg/G06JPZwY+Jy5+84hXNg778gecuTNSPzM1Zvzkl+qP2WOC80AyjDJ0ZDu7ejVeSKGvxXY/6xCQTEzPsnJklG/aIogDlerjNaVLr0O33xrPM1WqVyytL8r1nLusw57lSOS8GitfedNPCpU7wKa04pzPoS1cKnLJPoRVRnJGkCmMdJqbnKDdruCVwHIEUkl279lGp+GThgFESURRWKO3IXTv2mINTjS/4kVfcdgwwFsSTUeDxuvuuF7zAAewtvv76p01Xn7mrZHV5el7s3HeY5uxevHIVz3UoSwdHCOR2rjanaGyL6vo+frXEzt17iJOUlWGAbEwj65MoJO12m8lqlR2TU3RHIX91/CGxHChrhFvOUv3x68ePy04WPyXI1S2j3JhWmMtefwukpOT5uI6DdFy8cpkkTcitQQuYqFbYMTtDHnTZXF0kiobYQlGRzvbXJ4RCCZMNJkpV7/uX/vZvy09SBz92lFF97Ote+qbra94X7fWljYtMbrZbDAYR1XKNUqWEIafmepSdEihBPioIBiO22i3a/T6pUqRCsj7oM0wjWt3u+OzS7NQMk/UayhpOnDnN+c0eVuJkcWSVtW9++OCOY90se2aYZVYpTbAd/TgYr7VSFUyWXBCSotAYK0BIXMejXq1QrzcQfhUFGEeOB+UTbahNzWAqVREizY5K+VlPqUZf/Ng55SeRwGP3AvrPHGf3NSXxLftL1l3pDmxaFMJFjUdw2sMNhAfaKoaDLjW/SpFoBsOA+x4+yf0nT7N8dZ1urw+Ow9zCPGEaEKcpeZKOx1ccx2NpdYkza2skCFQcCq201daKYZF8fqEKNym0yI1FSOiPgvG19cTExHgd9v0S5XId6UisFWOBpxoNsjjCGI3rukgLYJlsVJmbKBMMOrieR61WYqSdz/vkt799L2AA+aQR2D4q8nMn3e89WCtd10sSsxHGsjVKGY16VDxFpSJxXMXUjpntDPFgi3Zng/5oQMnzmJ9osmduhr07d1EpVdi5nZsTk7iew+zCzLibXl5d5r5Tp9hKFVGSE2tJ4ZZkYiHTvMnT6uZCG7QxIso1K60BVQfmZ2eZnpqj7LhIB6y1uFIipKBSquIKSZFESATSCqyxzDcnMFlEkccMhkN5ZqNvu15zoRT2Xw+wPRPuPFkEdgD7+W9++efMlty3BaPElLyGPLp3L41yiVGQMBr2qdfrNJoTeK5Lc2qC1BZUmmWsk7FzocnuuSlGvRbdTgsrBVme41frNGs1yg4gFZ1oi804oJcUJAqMXyLTORqwwq0WafqSRCmUtUI6LoMk5oEzpwjziMbMNAtTFWYbZSqVEo4rx28eLGAEjnHJo5zRMBm73HMlvusgrKE1GLClHK1cx0my7HaA/qFDhv/nOI+uu+buXXO3TQrzUyVszQFRkkKUKzW0zdGFxqgChKbSbCCEx6DdB+GMnauNxmYxB/cdZKLWYNDdYKY5SbvbIgz7lGzB9GSTXtDh8uoKF9oRA+Wi/fL49/IkobCGtChEkOaOMjBdLbFjosSeiSpxFOL50JiYolGrUBMOVSlAusTReOoDIQS60FgDRilq1Tomz/A9gec5XOkMaTsTNlJW9sNIP3xi5veB8Enh4I2NyzuNzn64wC704sRoR4qoUJxbXKbdD8duFNKh0+vQ21jBMQLH9TBaYZRhtjnJVKNJEgzxrCXPCx44+QC9tVWqOmVhZoZCay4tX+HCeo9eDNb1kGi0NmjpoKyk0BZtoVAaY6GXFijLuEve2tpk6cJF8ljT2lxn2O+we2YGz3i4sky1VNvOgrLvjDddijjAFgoXSNKMDlUS68s4SWkPg9tavfbtT5Ymy6hE7w+1unm5N7LL/ZHYimIClVOuVamXJkhzQ5AVFIWl127TX2sT5xlnLp6jHw4pNcrkUjNKQta2hTi12WGxN2R2Zo756R3kWcry0hWutge0YoHBUCTBePNDKY2ykBYF1vXRSKxg7EhPSDppTmwdtJWkWczS0iLr7Q0UFt/zkAJaW2sEowGOEEw26jQrJRqux/R0DQfN5daQSNbIi3y8KxbE0dlBMjjJkwBnfn7e6Q2DjW0RDhda3dEoeaZe8qXAjMdgp+pNnFzjSYnvVWj1ArqdLldaq+PxGZ0nJKMhgzAiCGNWekM2g5hbD+9i/455pOOjhWHl6ior/YwYH2VzkjhASR9qEyg7Pj1IojSZtVgsM7Uyk1UPXwgUgBYUqkApxezuvRzYvxsVxiwtXkAIze6du5ifnqVZa5CGXbIsQfiGThByKZIETsX2R4FoBYHohuG3An957fXnHMA+GZoslaXp9zqev1Wp16VwXYvrEuc5m8MWudYUucHmmn3TU+BagjynOp6VVqz1hmz1IzaHEf1Cs2uqTm84YnGzz8pahzPLK3TTmNC6FEIiSlVwywi/itaaArBuGemXKIyxUkgyYwlyQ6QkQWbpFYZuYOgHKf2NNlsbXcI8Rjg5+xbmOLQtujCalbWrnF/f5Eow4Mxam5PtmAE+aZbbYRzTD8OHrqx5P7W+NZB3383//yYLsK9+9asl0ErjYM71vOd4ArQqRJwVOO54XcPkBoklt5r1UcAwVSTKkGlItSXXMA4psVaQpAXGFARhwPpghJAePeVRCA9lNPqRnGVEQZ/hKEAJiRaCKMtFxXNsreSLsucjpYO2YhzWEWgHUpUx3OiQxxEDK1gPYla3tnjg0hLn2wO2rEOncOlmgsB4pEjCPBftwUh04ujLgQeyPBSAfbJcJplf+tXfEH6j/J3DJLvaiTLRjwo7ygpGqSISimA7Hvm8G0YEaU6WG7ICUmtIjCXHUsjtrLezZnwiMVI5Q2kYiRJXQ0GcJCRJQGEERivyIkEJF1muobF2FEdorHE8T2gpbWZgNB7TNaTaMs7GElpLX8KlbshiN+dKL+f4SouVwqHvlAmUJNWGCEFqBEle2DBJGabJB1fWWr8GY8yT8WZDNy6yb4wBJaWpV6oIJK1Rhiy7iJI7dm6cGSIj6BjJKLMoMw4yBZ41+NKQWk2cW8LE4GNo+AZpUsZdcxZTFBn4FaxXQrqeLYwVubbL0vU+TjvuUo4jEiNMaqxNLXiexHElVgswAuVY4kdCFaRIIrdMYCFMU9IkJFHFdijSIibOUtMNQ4Zx8s2AHgYb8km5F/17v/dXwsuc39ZCftCUfEdJVyNcSq6PMZBhCGxB5lgKYZHSMFVzKJUEWoJ2LWY7QmsItSW34FiLbwyq0FivylhglWM9H40Yr7lpkelUGyWk/Arg13DLL0mM+cORMTIxiBxhusowVJqhNeM1ucih0JpESAbaEhQFRRKikpi0MESZIclywkzpMMucKInvWdvq/M1jM1RPEhzgMW6++WYXiPDFQFr7eqOUnKyWRcPzRZxl9NOEuFBk2pArPXYqMHbqoBBoDEKCsoCFTEM/M2TWkhuxnQW5UuTGooUgV4asKEyklFto/XOt7vC70zQD6G22ur9Zr9eMcZyn+57jY4SxCCEBDSS5YbgdES7KGNDjDpsMQWQgVZpCKZsbY/txkvTT/MuAc6/NcgcwT0qBt8/Q2qc84xmOXW8tJp485rvu0YorjSektBY8KxhF6bhEFxoKA1Fh6eeWQBl8adEwFtB1BKPCMsg0zZJL1ZEkSpNKF40k15pUKZ0W2kmK/LSOvU8ERoUpRJZlABb422q1eiI35nYrnHksFiuwIGJtiJUhMZBpbTNtbQY20pooz4Vh/CYUYZbLQZzdc/nqxve89nU5d5/BPJlv+FsYE2stvjvWZthNC9lNU6sR9NOczFhyIMeirCUzEGvDtCdpuiUqnkvVl1gLDpaSI/AdidyOwhiU1hRakStls0KLROWRNuPSvBUV0T+aMe4PAxe4JyrEywd5/tudQom+MiLMrU6U0UGh1TDNTZAXYlQUsp9msh3GItaWXq6KrSgbbkXJB6I8+y4gu/tuHnuOT0IHP4adP3zYARaLLLnRwK0OUOSZiNIMJQSxUmhryS0Mc0Wt5NAse+TaPNpFW1LF+ONIWaQVKGsJCkOmt0NpEqVsrJQstPlB4Ee3Bm0H0PxjTKc3cIAB8JvScQstnadKR1TiXMn+dsRai0SrLMjUxrbYl8M0+0Ah+TmtzbuCfHjX1fX+jwEreaEEYHiSIf61rz/rhccscHgC/4GmIxp+kQub56RKoYzFWssoL4hzxVSlTMWXqMJgBSgD2urtAGMFddfBkZBrQz/OyS32kTIa5tn7jfBfurGxEX+E5kccu/U6C2NeZgr1DXGaublS5y1yVTicsFZ/GFjmozzuoyviuc8ci3xX3ZPfUFbKqKKQSmuMMVgLSpuxk6021CsltLFjwR1P4jsCTwqy3JAUmrIrkRI2B6HVUhJk+bCw5mWbm937nkBnKw+Nb/Exkbiut3HhQudfeD4SsI/FkxzJv8F7PnBcbHa2fjJRxaXCdURsbREbdKStSizKSqmMEKoQqFQbFRZKS9/V1ZKvXdfVGmmsEAZhjXQdKxzXSMfRWaGFVuZbgPsA5wkIYY5dueIAQ6DzfHCPHcN7JMNjz0U/zjNAH+Wtjw6Kv+i5xz7zRc85Zp95x432GbffYJ96y3X/KJ5x2/X2mdvx9O0y+rxjN9nnHrvR3nrkoL3pmn322I3X2KfccI19wfbXnnnzkeKGQ3vsrh2zv3vs2DEPEON44shxfJSPiLDW8m8g3vjGl1hgprXa+tTOMNxd8hxpoYTRvgUfITyB3M62LAQlEGUBlSTJKtracq1aqhhjSo6UfhynpTTPr0aJemW/3z8FyP87jc9HcRcWFmq7du2auXbPnt03HD58zXXXHbrpxiMHn3rtwb3PPXhw10v27pp53Z4900+DMYKP8r8G8UhJ/YexfezUfbSES0D8Jx9646N8lI/yUT7K3wGZlcKQHbPW5AAAAABJRU5ErkJggg==" vertex="1" parent="xqXmZL-dFiemZVTsupqS-6">
          <mxGeometry width="75" height="40" as="geometry" />
        </mxCell>
        <mxCell id="xqXmZL-dFiemZVTsupqS-5" value="" style="whiteSpace=wrap;html=1;aspect=fixed;strokeColor=none;" vertex="1" parent="xqXmZL-dFiemZVTsupqS-6">
          <mxGeometry x="40" width="40" height="40" as="geometry" />
        </mxCell>
        <mxCell id="xqXmZL-dFiemZVTsupqS-7" value="" style="endArrow=classic;html=1;rounded=0;exitX=0.25;exitY=1;exitDx=0;exitDy=0;" edge="1" parent="1" source="xqXmZL-dFiemZVTsupqS-4">
          <mxGeometry width="50" height="50" relative="1" as="geometry">
            <mxPoint x="70" y="90" as="sourcePoint" />
            <mxPoint x="60" y="120" as="targetPoint" />
          </mxGeometry>
        </mxCell>
      </root>
    </mxGraphModel>
  </diagram>
</mxfile>
